<svg width="64" height="64" viewBox="0 0 64 64" fill="none" xmlns="http://www.w3.org/2000/svg">
<path d="M32.4572 17.8285V26.0571M30.3817 9.59998H34.624C37.9478 9.62655 41.1256 10.9693 43.4613 13.3342C45.7971 15.6991 47.1004 18.8933 47.0857 22.2171V39.5885C47.0978 41.5216 46.729 43.4381 46.0003 45.2287C45.2717 47.0192 44.1975 48.6486 42.8391 50.024C41.4807 51.3994 39.8647 52.4937 38.0834 53.2446C36.302 53.9954 34.3902 54.388 32.4572 54.4C30.5241 54.388 28.6123 53.9954 26.831 53.2446C25.0496 52.4937 23.4336 51.3994 22.0752 50.024C20.7169 48.6486 19.6427 47.0192 18.914 45.2287C18.1854 43.4381 17.8165 41.5216 17.8286 39.5885V22.2171C17.8499 18.8885 19.1774 15.7013 21.5251 13.3416C23.8729 10.9818 27.0533 9.63825 30.3817 9.59998V9.59998Z" stroke="white" stroke-width="4" stroke-linecap="round" stroke-linejoin="round"/>
</svg>
